<mxfile host="app.diagrams.net" modified="2023-10-10T07:15:18.545Z" agent="Mozilla/5.0 (X11; Ubuntu; Linux x86_64; rv:109.0) Gecko/20100101 Firefox/118.0" version="22.0.4" etag="XbuH0HFQ34kBDhSq9zfP" type="github">
  <diagram name="Page-1" id="56jJ4mULuAshoVcfb5Au">
    <mxGraphModel>
      <root>
        <mxCell id="0" />
        <mxCell id="1" parent="0" />
      </root>
    </mxGraphModel>
  </diagram>
</mxfile>
